<?xml version="1.0" encoding="UTF-8"?>
<svg xmlns="http://www.w3.org/2000/svg" width="38" height="38" viewBox="0 0 38 38" role="img" aria-labelledby="title desc">
  <title id="title">Double Bass (38×38)</title>
  <desc id="desc">Compact realistic-styled double-bass mark optimized for 38×38 pixels.</desc>

  <defs>
    <linearGradient id="wood" x1="0" y1="0" x2="1" y2="1">
      <stop offset="0" stop-color="#b57745"/>
      <stop offset="1" stop-color="#6a3714"/>
    </linearGradient>
    <radialGradient id="varn" cx="30%" cy="25%" r="60%">
      <stop offset="0" stop-color="#fff6e6" stop-opacity="0.7"/>
      <stop offset="1" stop-color="#fff6e6" stop-opacity="0"/>
    </radialGradient>
    <filter id="soft" x="-50%" y="-50%" width="200%" height="200%">
      <feDropShadow dx="0" dy="0.8" stdDeviation="0.8" flood-color="#000" flood-opacity="0.18"/>
    </filter>
  </defs>

  <!-- subtle shadow -->
  <ellipse cx="19" cy="34.2" rx="7.2" ry="1.3" fill="#000" opacity="0.12"/>

  <!-- body -->
  <g filter="url(#soft)">
    <path d="M8.2 6.0
             C6.0 6.4, 4.6 8.8, 5.4 11.6
             C6.2 14.4, 9.0 16.2, 10.0 18.6
             C7.6 20.8, 7.0 24.6, 8.6 27.0
             C11.2 30.6, 16.6 30.0, 18.2 27.4
             C20.6 25.6, 23.8 24.8, 23.2 21.6
             C25.8 18.8, 27.8 14.4, 25.6 10.8
             C23.8 8.2, 18.6 7.2, 8.2 6.0 Z"
          fill="url(#wood)" stroke="#3d1f0f" stroke-width="0.6" stroke-linejoin="round"/>
    <!-- varnish highlight -->
    <path d="M10.8 7.6 C13.6 7.2, 16.8 7.0, 20.0 8.6 C21.0 9.4, 22.0 10.8, 21.2 12.2 C19.8 13.6, 17.8 14.2, 15.6 14.6 C13.6 14.8, 12.0 14.4, 10.8 12.6 Z"
          fill="url(#varn)" opacity="0.85"/>
  </g>

  <!-- simplified f-holes -->
  <g fill="#0b0b0b" opacity="0.96">
    <path d="M13.6 15.8 C13.4 15.0, 14.0 14.4, 14.8 14.4 C14.2 15.4, 13.8 16.0, 13.6 15.8 Z"/>
    <path d="M19.6 16.4 C19.4 15.6, 20.0 15.0, 20.8 15.0 C20.2 16.0, 19.8 16.6, 19.6 16.4 Z"/>
  </g>

  <!-- bridge -->
  <rect x="13.8" y="19.6" width="4.4" height="1.2" rx="0.2" fill="#e8d7b4" stroke="#6b4a2b" stroke-width="0.2"/>

  <!-- tailpiece -->
  <path d="M11.4 26.0 C12.2 27.4, 14.0 28.0, 15.0 27.0 C16.0 26.0, 14.8 25.2, 11.4 26.0 Z" fill="#151515" stroke="#0f0f0f" stroke-width="0.2"/>

  <!-- fingerboard / neck -->
  <rect x="22.0" y="0.8" width="3.6" height="16.6" rx="0.6" fill="#111111" transform="rotate(-8 23.8 9.6)" stroke="#000" stroke-width="0.2"/>

  <!-- scroll (stylized) -->
  <path d="M25.2 1.0 C26.2 0.6, 27.8 0.8, 27.6 2.0 C27.4 3.2, 26.0 3.6, 25.0 3.2" fill="#4a2a17" stroke="#2b160b" stroke-width="0.2" transform="rotate(-8 26.4 2.1)"/>

  <!-- strings (4, simplified for small size) -->
  <g stroke="#f3efe9" stroke-linecap="round">
    <path d="M14.2 20.2 C15.2 17.6, 16.6 14.8, 25.6 3.4" stroke-width="0.7" stroke-opacity="0.95"/>
    <path d="M15.4 20.0 C16.4 17.6, 17.8 14.6, 26.8 3.6" stroke-width="0.6" stroke-opacity="0.85"/>
    <path d="M16.6 19.6 C17.6 17.2, 19.0 14.4, 28.0 3.8" stroke-width="0.5" stroke-opacity="0.75"/>
    <path d="M17.8 19.0 C18.8 16.8, 20.2 13.8, 29.2 4.2" stroke-width="0.4" stroke-opacity="0.65"/>
  </g>
</svg>